<svg width="756" height="276" viewBox="0 0 756 276" fill="none" xmlns="http://www.w3.org/2000/svg">
<path d="M0 33.2955C0 16.727 13.4315 3.29552 30 3.29552H189H283.5H328.28C329.924 3.29552 331.553 3.16126 333.181 2.93229C339.274 2.07551 356.274 0 378 0C399.726 0 416.726 2.07551 422.819 2.93229C424.447 3.16126 426.076 3.29552 427.72 3.29552H472.5H567H726C742.569 3.29552 756 16.727 756 33.2955V246C756 262.569 742.569 276 726 276H30C13.4315 276 0 262.569 0 246V33.2955Z" fill="#EFEEFC"/>
<circle cx="378" cy="10" r="4" fill="#C1BCF1"/>
</svg>
